<svg id="Layer_1" data-name="Layer 1" xmlns="http://www.w3.org/2000/svg" viewBox="0 0 1081.75 215.75"><defs><style>.cls-1{fill:#fefefe;}.cls-2{fill:#4e565c;}.cls-3{fill:#4a90cc;}.cls-4{fill:#fdc83d;}.cls-5{fill:#fdc73c;}.cls-6{fill:#fefefd;}</style></defs><path class="cls-1" d="M419,647.73V432q540.3,0,1080.6,0c.94,0,1.15.21,1.15,1.15q0,106.73,0,213.45c0,.94-.21,1.15-1.15,1.15Q959.3,647.72,419,647.73Zm987.27-91.12,1,1.38q21.45,30.78,42.89,61.56a6.8,6.8,0,0,0,6.08,3.21c6.42-.08,12.83,0,19.25,0a16.92,16.92,0,0,0,3.34-.26c2.28-.47,3.05-2.11,2.06-4.23a12,12,0,0,0-1.13-1.79q-23.14-32.41-46.26-64.86a1.92,1.92,0,0,1,.08-1.8c11.76-13.93,23.59-27.81,35.35-41.75a12.32,12.32,0,0,0,1.41-3.24,13.8,13.8,0,0,0-3.42-1c-7.62-.08-15.25-.17-22.87.06a7.22,7.22,0,0,0-4.71,2.19c-8.1,9.35-16,18.86-24,28.32l-9.12,10.82V462.25c0-3-.94-3.94-4-3.94h-18.5c-2.5,0-3.57,1.1-3.57,3.6V619.22c0,2.57,1,3.51,3.57,3.51h18.37c3.37,0,4.1-.72,4.1-4.11Zm-155.17,7.92q0,24.48,0,49,0,3.12,0,6.25c0,2.13,1.16,3,3.27,3,6.33,0,12.66,0,19,0,3,0,3.82-.85,3.82-3.88V542.62c0-5.41,0-10.83,0-16.24,0-.36.52-1,.8-1,10.91,0,21.83-.07,32.73.25,8,.24,12.17,3.24,14.07,9.65a35.28,35.28,0,0,1,1.55,8.43c.35,9.4.52,18.81.58,28.21.08,15.58,0,31.16,0,46.74,0,3.29.84,4.11,4.14,4.11h18c3.09,0,4-.94,4-4,0-22.2.11-44.4-.07-66.6a187.17,187.17,0,0,0-1.46-20.89c-.8-6.62-2.74-13-7.26-18.17-5.41-6.23-12.79-8.58-20.57-9.18-10.15-.79-20.36-1-30.54-1.09a196.42,196.42,0,0,0-38.26,3.16c-3.74.71-3.93,1-3.93,4.86ZM931.53,562q0-27.24,0-54.48c0-3-.82-3.78-3.78-3.78h-19c-2.64,0-3.5.87-3.5,3.54v35q0,28.8,0,57.6c0,.44-.56,1.25-.85,1.25-10.79,0-21.58.1-32.36-.25-9.46-.3-13.64-3.9-15.19-13.16a112.54,112.54,0,0,1-1.4-17.5c-.16-21-.06-42-.07-63,0-2.76-.73-3.49-3.46-3.49H833.12c-2.77,0-3.84,1.08-3.84,3.86,0,23-.15,46.07.09,69.1a152.28,152.28,0,0,0,2,21.08c1,6.54,3.45,12.62,8.52,17.25,6,5.53,13.6,7.42,21.39,7.83,11.16.6,22.39,1,33.55.55s22.1-2,33.13-3.24c3.32-.37,3.6-1,3.6-4.31Q931.54,588.94,931.53,562Zm49.63,39.49v.26H957.79c-3.06,0-4,.88-4,3.92,0,4,0,8.08,0,12.12,0,3.14.76,4,4,4.14,11.6.62,23.18,1.39,34.78,1.75,10.23.31,20.5.35,30.54-2.22s17.42-7.88,19.46-18.43a80.34,80.34,0,0,0,.94-15.75c-.08-11.83-5.51-20.62-16.34-25.39-8.63-3.8-17.62-6.74-26.41-10.18A114,114,0,0,1,987.33,546c-6.28-3.44-6.5-9.53-5-15.75a6,6,0,0,1,1.92-2.69c2.64-2.36,6-3,9.31-3,13.83-.1,27.66-.06,41.49-.07,2.8,0,3.8-1,3.81-3.73,0-3.91,0-7.83,0-11.74,0-2.47-1.2-3.66-3.52-4a187.26,187.26,0,0,0-38.56-2.14,124.38,124.38,0,0,0-21.67,3c-8.65,2.05-15.63,7-17.93,16.1-1.29,5.07-1.41,10.53-1.38,15.81.07,13.83,7.27,24.07,20.12,29.18,4.84,1.92,9.74,3.64,14.58,5.54,7.08,2.78,14.19,5.5,21.15,8.55a9.89,9.89,0,0,1,6.21,8.16c.88,6.91-1,10.4-6.82,11.71a18.35,18.35,0,0,1-4,.56C998.48,601.53,989.82,601.51,981.16,601.51Zm91-38.25h.28c0,13.33-.33,26.66.1,40,.34,10.42,6.43,17.19,16.59,19.26,10.73,2.19,21.53,1.61,32.28-.15,2.52-.41,3.53-1.87,3.51-4.32,0-4.41,0-8.83,0-13.24,0-2.72-.85-3.56-3.61-3.58-4,0-8.08.07-12.12-.08-8.45-.32-10.73-2.75-10.73-11.16q0-32.18,0-64.36a1.87,1.87,0,0,1,1.28-1.29c6.46-.08,12.91,0,19.37-.06,3,0,4-1,4-4V507.67c0-2.69-1-3.69-3.7-3.7-6.58,0-13.16,0-19.75-.05a1.79,1.79,0,0,1-1.21-1.25c-.07-9.5,0-19-.06-28.49,0-3-1.26-4-4.21-3.22q-9.62,2.42-19.24,4.83a3.3,3.3,0,0,0-2.86,3.61c.07,7.63,0,15.25.07,22.87,0,1.49-.44,1.77-1.8,1.73-3.5-.09-7,0-10.5,0-2.46,0-3.48,1-3.49,3.51q0,6.51,0,13c0,2.71,1.06,3.74,3.82,3.76,3.5,0,7,0,10.5,0,1.12,0,1.46.24,1.46,1.42C1072.18,538.19,1072.2,550.72,1072.2,563.26Zm-395.92-1.39c0,4.87,0,9.74,0,14.62.12,9.15-.06,18.33.54,27.45.67,10,6.56,16.5,16.37,18.53,10.77,2.22,21.6,1.62,32.4-.11,2.51-.4,3.54-1.84,3.5-4.31-.05-4.38,0-8.75,0-13.13,0-3-.75-3.69-3.8-3.73-4.67-.05-9.33,0-14-.23-5.34-.24-7.85-2.52-8.48-7.49a29.21,29.21,0,0,1-.22-3.74q0-32.06,0-64.1a1.91,1.91,0,0,1,1.28-1.32c6.5-.08,13,0,19.5-.06,2.93,0,3.91-1,3.92-3.89V507.74c0-2.83-.93-3.76-3.73-3.77-6.12,0-12.25-.1-18.37.06-2.12.05-2.76-.39-2.72-2.65.16-9.12.07-18.24.06-27.36,0-2.84-1.23-3.81-3.94-3.13-6.29,1.59-12.56,3.28-18.88,4.74-2.6.61-3.54,2-3.51,4.56.08,7.5,0,15,0,22.49a1.75,1.75,0,0,1-1.24,1.23c-3.58.11-7.16,0-10.75.06-2.58,0-3.57,1-3.58,3.54q0,6.5,0,13c0,2.68,1,3.73,3.69,3.75,3.5,0,7,.07,10.5,0,1.26,0,1.47.37,1.47,1.53C676.26,537.79,676.28,549.83,676.28,561.87Zm493.16-21.44v-78.6c0-2.78-.88-3.69-3.63-3.7h-18.75c-2.84,0-3.71.89-3.71,3.76v157c0,3,.84,3.88,3.71,3.88h18.62c2.91,0,3.76-.86,3.76-3.82ZM524.83,627.48c47.86,0,86.91-38.87,86.86-86.71a86.83,86.83,0,1,0-86.86,86.71Zm222.26-53.37q0,22.5,0,45c0,2.69.93,3.63,3.58,3.63h18.88c2.73,0,3.66-.93,3.66-3.68q0-19.44,0-38.87c0-15,0-30,.06-45,0-5.2,2.38-8.06,7.17-9.11a21.17,21.17,0,0,1,4.32-.58c8.37-.11,16.74-.15,25.12-.21,2.34,0,3.32-1,3.32-3.35q0-5.75,0-11.5c0-4-.64-5-4.55-5.67a130.19,130.19,0,0,0-37.54-1.4c-6,.67-11.76,2.44-16.42,6.6-5.79,5.17-7.53,12-7.58,19.4C747,544.28,747.09,559.2,747.09,574.11Zm450.26-10.85v55.59c0,3,.83,3.88,3.82,3.88H1220c2.41,0,3.4-1,3.4-3.43V507.24c0-2.54-.94-3.48-3.45-3.48h-18.74c-3.12,0-3.9.78-3.9,3.9Zm27.32-106.79c-.91.21-1.72.37-2.52.56-14.52,3.55-24.18,13.52-26,26.82,0,.32.55,1,.85,1q12,.09,24,0a3.41,3.41,0,0,0,3.7-3.76q0-11.75,0-23.48C1224.73,457.31,1224.69,457,1224.67,456.47Z" transform="translate(-419 -432)"/><path class="cls-2" d="M1406.27,556.61v62c0,3.39-.73,4.11-4.1,4.11H1383.8c-2.61,0-3.57-.94-3.57-3.51V461.91c0-2.5,1.07-3.59,3.57-3.6h18.5c3,0,4,.93,4,3.94v82.94l9.12-10.82c8-9.46,15.86-19,24-28.32a7.22,7.22,0,0,1,4.71-2.19c7.62-.23,15.25-.14,22.87-.06a13.8,13.8,0,0,1,3.42,1,12.32,12.32,0,0,1-1.41,3.24c-11.76,13.94-23.59,27.82-35.35,41.75a1.92,1.92,0,0,0-.08,1.8q23.09,32.46,46.26,64.86a12,12,0,0,1,1.13,1.79c1,2.12.22,3.76-2.06,4.23a16.92,16.92,0,0,1-3.34.26c-6.42,0-12.83,0-19.25,0a6.8,6.8,0,0,1-6.08-3.21q-21.42-30.79-42.89-61.56Z" transform="translate(-419 -432)"/><path class="cls-2" d="M1251.1,564.53V510.8c0-3.85.19-4.15,3.93-4.86a196.42,196.42,0,0,1,38.26-3.16c10.18.05,20.39.3,30.54,1.09,7.78.6,15.16,2.95,20.57,9.18,4.52,5.2,6.46,11.55,7.26,18.17a187.17,187.17,0,0,1,1.46,20.89c.18,22.2.07,44.4.07,66.6,0,3.08-.94,4-4,4h-18c-3.3,0-4.14-.82-4.14-4.11,0-15.58.06-31.16,0-46.74-.06-9.4-.23-18.81-.58-28.21a35.28,35.28,0,0,0-1.55-8.43c-1.9-6.41-6-9.41-14.07-9.65-10.9-.32-21.82-.22-32.73-.25-.28,0-.8.68-.8,1-.06,5.41,0,10.83,0,16.24v76.23c0,3-.84,3.88-3.82,3.88-6.34,0-12.67,0-19,0-2.11,0-3.24-.86-3.27-3s0-4.17,0-6.25Q1251.09,589,1251.1,564.53Z" transform="translate(-419 -432)"/><path class="cls-3" d="M931.53,562q0,26.93,0,53.86c0,3.36-.28,3.94-3.6,4.31-11,1.22-22.06,2.78-33.13,3.24s-22.39.05-33.55-.55c-7.79-.41-15.35-2.3-21.39-7.83-5.07-4.63-7.53-10.71-8.52-17.25a152.28,152.28,0,0,1-2-21.08c-.24-23-.09-46.07-.09-69.1,0-2.78,1.07-3.86,3.84-3.86h18.75c2.73,0,3.46.73,3.46,3.49,0,21-.09,42,.07,63a112.54,112.54,0,0,0,1.4,17.5c1.55,9.26,5.73,12.86,15.19,13.16,10.78.35,21.57.24,32.36.25.29,0,.85-.81.85-1.25q.07-28.8,0-57.6v-35c0-2.67.86-3.54,3.5-3.54h19c3,0,3.78.8,3.78,3.78Q931.54,534.78,931.53,562Z" transform="translate(-419 -432)"/><path class="cls-3" d="M981.16,601.51c8.66,0,17.32,0,26,0a18.35,18.35,0,0,0,4-.56c5.77-1.31,7.7-4.8,6.82-11.71a9.89,9.89,0,0,0-6.21-8.16c-7-3-14.07-5.77-21.15-8.55-4.84-1.9-9.74-3.62-14.58-5.54-12.85-5.11-20.05-15.35-20.12-29.18,0-5.28.09-10.74,1.38-15.81,2.3-9.07,9.28-14.05,17.93-16.1a124.38,124.38,0,0,1,21.67-3,187.26,187.26,0,0,1,38.56,2.14c2.32.35,3.56,1.54,3.52,4-.06,3.91,0,7.83,0,11.74,0,2.75-1,3.72-3.81,3.73-13.83,0-27.66,0-41.49.07-3.35,0-6.67.64-9.31,3a6,6,0,0,0-1.92,2.69c-1.53,6.22-1.31,12.31,5,15.75a114,114,0,0,0,13.37,5.75c8.79,3.44,17.78,6.38,26.41,10.18,10.83,4.77,16.26,13.56,16.34,25.39a80.34,80.34,0,0,1-.94,15.75c-2,10.55-9.55,15.89-19.46,18.43s-20.31,2.53-30.54,2.22c-11.6-.36-23.18-1.13-34.78-1.75-3.19-.17-4-1-4-4.14,0-4,0-8.08,0-12.12,0-3,1-3.92,4-3.92h23.37Z" transform="translate(-419 -432)"/><path class="cls-3" d="M1072.2,563.26c0-12.54,0-25.07,0-37.61,0-1.18-.34-1.45-1.46-1.42-3.5.07-7,0-10.5,0-2.76,0-3.81-1-3.82-3.76q0-6.5,0-13c0-2.47,1-3.5,3.49-3.51,3.5,0,7-.07,10.5,0,1.36,0,1.82-.24,1.8-1.73-.09-7.62,0-15.24-.07-22.87a3.3,3.3,0,0,1,2.86-3.61q9.63-2.4,19.24-4.83c3-.74,4.2.19,4.21,3.22,0,9.49,0,19,.06,28.49a1.79,1.79,0,0,0,1.21,1.25c6.59.08,13.17.05,19.75.05,2.71,0,3.7,1,3.7,3.7v12.62c0,2.93-1,4-4,4-6.46,0-12.91,0-19.37.06a1.87,1.87,0,0,0-1.28,1.29q-.09,32.17,0,64.36c0,8.41,2.28,10.84,10.73,11.16,4,.15,8.08.06,12.12.08,2.76,0,3.61.86,3.61,3.58,0,4.41,0,8.83,0,13.24,0,2.45-1,3.91-3.51,4.32-10.75,1.76-21.55,2.34-32.28.15-10.16-2.07-16.25-8.84-16.59-19.26-.43-13.31-.1-26.64-.1-40Z" transform="translate(-419 -432)"/><path class="cls-3" d="M676.28,561.87c0-12,0-24.08,0-36.12,0-1.16-.21-1.57-1.47-1.53-3.5.1-7,0-10.5,0-2.67,0-3.68-1.07-3.69-3.75q0-6.5,0-13c0-2.55,1-3.53,3.58-3.54,3.59,0,7.17,0,10.75-.06a1.75,1.75,0,0,0,1.24-1.23c.08-7.5.11-15,0-22.49,0-2.57.91-3.95,3.51-4.56,6.32-1.46,12.59-3.15,18.88-4.74,2.71-.68,3.94.29,3.94,3.13,0,9.12.1,18.24-.06,27.36,0,2.26.6,2.7,2.72,2.65,6.12-.16,12.25-.06,18.37-.06,2.8,0,3.73.94,3.73,3.77v12.62c0,2.89-1,3.88-3.92,3.89-6.5,0-13,0-19.5.06a1.91,1.91,0,0,0-1.28,1.32q-.09,32,0,64.1a29.21,29.21,0,0,0,.22,3.74c.63,5,3.14,7.25,8.48,7.49,4.66.2,9.32.18,14,.23,3.05,0,3.79.73,3.8,3.73,0,4.38,0,8.75,0,13.13,0,2.47-1,3.91-3.5,4.31-10.8,1.73-21.63,2.33-32.4.11-9.81-2-15.7-8.52-16.37-18.53-.6-9.12-.42-18.3-.54-27.45C676.23,571.61,676.28,566.74,676.28,561.87Z" transform="translate(-419 -432)"/><path class="cls-2" d="M1169.44,540.43v78.48c0,3-.85,3.82-3.76,3.82h-18.62c-2.87,0-3.71-.88-3.71-3.88v-157c0-2.87.87-3.75,3.71-3.76h18.75c2.75,0,3.63.92,3.63,3.7Z" transform="translate(-419 -432)"/><path class="cls-4" d="M524.83,627.48a86.8,86.8,0,1,1,86.86-86.71C611.74,588.61,572.69,627.48,524.83,627.48Zm-.06-7.46c43.5,0,79.31-35.48,79.52-78.42.21-44.07-34.84-79.51-77.93-80.28A79.36,79.36,0,1,0,524.77,620Z" transform="translate(-419 -432)"/><path class="cls-3" d="M747.09,574.11c0-14.91-.08-29.83,0-44.74,0-7.37,1.79-14.23,7.58-19.4,4.66-4.16,10.39-5.93,16.42-6.6a130.19,130.19,0,0,1,37.54,1.4c3.91.71,4.55,1.71,4.55,5.67s0,7.67,0,11.5c0,2.37-1,3.33-3.32,3.35-8.38.06-16.75.1-25.12.21a21.17,21.17,0,0,0-4.32.58c-4.79,1-7.15,3.91-7.17,9.11-.08,15-.06,30-.06,45q0,19.43,0,38.87c0,2.75-.93,3.68-3.66,3.68H750.67c-2.65,0-3.58-.94-3.58-3.63Q747.08,596.6,747.09,574.11Z" transform="translate(-419 -432)"/><path class="cls-2" d="M1197.35,563.26v-55.6c0-3.12.78-3.9,3.9-3.9H1220c2.51,0,3.45.94,3.45,3.48V619.3c0,2.43-1,3.43-3.4,3.43h-18.87c-3,0-3.82-.84-3.82-3.88Z" transform="translate(-419 -432)"/><path class="cls-5" d="M1224.67,456.47c0,.48.06.84.06,1.2q0,11.74,0,23.48a3.41,3.41,0,0,1-3.7,3.76q-12,0-24,0c-.3,0-.89-.71-.85-1,1.77-13.3,11.43-23.27,26-26.82C1223,456.84,1223.76,456.68,1224.67,456.47Z" transform="translate(-419 -432)"/><path class="cls-6" d="M524.77,620a79.36,79.36,0,1,1,1.59-158.7c43.09.77,78.14,36.21,77.93,80.28C604.08,584.54,568.27,620,524.77,620Zm72-79.23c0-39.72-32-72-71.46-72.06-39.76,0-72.05,31.85-72.5,70.73-.45,39.3,30.77,73,71.8,73.21A71.79,71.79,0,0,0,596.78,540.79Z" transform="translate(-419 -432)"/><path class="cls-5" d="M596.78,540.79a71.79,71.79,0,0,1-72.16,71.88c-41-.17-72.25-33.91-71.8-73.21.45-38.88,32.74-70.76,72.5-70.73C564.75,468.76,596.78,501.07,596.78,540.79ZM526.11,560a17.92,17.92,0,0,0,12.57-5.35c8-7.74,15.94-15.5,24-23.18a17.51,17.51,0,0,0,.94-24.43,17.28,17.28,0,0,0-24.24-2c-3.73,3.18-7.14,6.75-10.67,10.16-2.08,2-2.25,4.61-.46,6.38s4.26,1.58,6.31-.4c3.08-3,6.13-6,9.28-8.91,4.3-4,9.65-3.78,13.49.36,3.56,3.84,3.19,9.35-.87,13.26l-23.92,23a9.22,9.22,0,0,1-13,.08c-2.12-2-4-1.88-6.23.45-1.67,1.75-1.51,3.85.47,5.68A17.79,17.79,0,0,0,526.11,560Zm-2.5-33a17.54,17.54,0,0,0-12.38,5.07Q499.13,543.79,487,555.47a17.67,17.67,0,0,0,24.23,25.72c3.39-3.2,6.73-6.44,10.09-9.68a4.21,4.21,0,1,0-5.93-6q-4.82,4.63-9.6,9.3a9.12,9.12,0,0,1-13.1-.1,9,9,0,0,1,0-13.07q12.17-11.85,24.41-23.62a9.23,9.23,0,0,1,13.15.08c1.87,1.79,3.84,1.66,5.87-.4a3.62,3.62,0,0,0,0-5.6A17.37,17.37,0,0,0,523.61,527Z" transform="translate(-419 -432)"/><path class="cls-6" d="M526.11,560a17.79,17.79,0,0,1-12.31-4.88c-2-1.83-2.14-3.93-.47-5.68,2.24-2.33,4.11-2.47,6.23-.45a9.22,9.22,0,0,0,13-.08l23.92-23c4.06-3.91,4.43-9.42.87-13.26-3.84-4.14-9.19-4.33-13.49-.36-3.15,2.91-6.2,5.93-9.28,8.91-2,2-4.54,2.15-6.31.4s-1.62-4.38.46-6.38c3.53-3.41,6.94-7,10.67-10.16a17.28,17.28,0,0,1,24.24,2,17.51,17.51,0,0,1-.94,24.43c-8,7.68-16,15.44-24,23.18A17.92,17.92,0,0,1,526.11,560Z" transform="translate(-419 -432)"/><path class="cls-6" d="M523.61,527a17.37,17.37,0,0,1,12.46,5.15,3.62,3.62,0,0,1,0,5.6c-2,2.06-4,2.19-5.87.4a9.23,9.23,0,0,0-13.15-.08q-12.24,11.78-24.41,23.62a9,9,0,0,0,0,13.07,9.12,9.12,0,0,0,13.1.1q4.77-4.67,9.6-9.3a4.21,4.21,0,1,1,5.93,6c-3.36,3.24-6.7,6.48-10.09,9.68A17.67,17.67,0,0,1,487,555.47q12.18-11.65,24.27-23.41A17.54,17.54,0,0,1,523.61,527Z" transform="translate(-419 -432)"/></svg>